<svg class="svg-icon" style="width: 1em; height: 1em;vertical-align: middle;fill: currentColor;overflow: hidden;" viewBox="0 0 1024 1024" version="1.1" xmlns="http://www.w3.org/2000/svg"><path d="M469.3 350.8H339.9c-27.5 0-50-22.5-50-50v-38.6c0-27.5 22.5-50 50-50h129.4c27.5 0 50 22.5 50 50v38.6c0 27.5-22.5 50-50 50z" fill="#F4B3BA" /><path d="M469.3 358.8H339.9c-32 0-58-26-58-58v-38.6c0-32 26-58 58-58h129.4c32 0 58 26 58 58v38.6c0 32-26.1 58-58 58zM339.9 220.1c-23.2 0-42 18.8-42 42v38.6c0 23.2 18.8 42 42 42h129.4c23.2 0 42-18.8 42-42v-38.6c0-23.2-18.8-42-42-42H339.9z" fill="#8E7A8F" /><path d="M508.6 147.4h-208c-46.2 0-84 37.8-84 84v315.4c0 46.2 37.8 84 84 84h208c46.2 0 84-37.8 84-84V231.4c0-46.2-37.8-84-84-84z m-104 451.7c-41.8 0-75.8-34-75.8-75.8s34-75.8 75.8-75.8 75.8 34 75.8 75.8-34.1 75.8-75.8 75.8z m135.9-286.4c0 31.5-25.6 57.1-57.1 57.1H326c-31.5 0-57.1-25.6-57.1-57.1v-62.4c0-31.5 25.6-57.1 57.1-57.1h157.4c31.5 0 57.1 25.6 57.1 57.1v62.4z" fill="#F4B3BA" /><path d="M508.6 638.8h-208c-50.7 0-92-41.3-92-92V231.4c0-50.7 41.3-92 92-92h208c50.7 0 92 41.3 92 92v315.4c0 50.7-41.3 92-92 92z m-208-483.4c-41.9 0-76 34.1-76 76v315.4c0 41.9 34.1 76 76 76h208c41.9 0 76-34.1 76-76V231.4c0-41.9-34.1-76-76-76h-208z m104 451.7c-46.2 0-83.8-37.6-83.8-83.8 0-46.2 37.6-83.8 83.8-83.8s83.8 37.6 83.8 83.8c-0.1 46.3-37.7 83.8-83.8 83.8z m0-151.5c-37.4 0-67.8 30.4-67.8 67.8s30.4 67.8 67.8 67.8 67.8-30.4 67.8-67.8c-0.1-37.4-30.5-67.8-67.8-67.8z m78.8-77.8H326c-35.9 0-65.1-29.2-65.1-65.1v-62.4c0-35.9 29.2-65.1 65.1-65.1h157.4c35.9 0 65.1 29.2 65.1 65.1v62.4c0 35.9-29.2 65.1-65.1 65.1zM326 201.2c-27.1 0-49.1 22-49.1 49.1v62.4c0 27.1 22 49.1 49.1 49.1h157.4c27.1 0 49.1-22 49.1-49.1v-62.4c0-27.1-22-49.1-49.1-49.1H326z" fill="#8E7A8F" /><path d="M404.6 523.4m-54.4 0a54.4 54.4 0 1 0 108.8 0 54.4 54.4 0 1 0-108.8 0Z" fill="#F4B3BA" /><path d="M404.6 585.8c-34.4 0-62.4-28-62.4-62.4s28-62.4 62.4-62.4 62.4 28 62.4 62.4-28 62.4-62.4 62.4z m0-108.8c-25.6 0-46.4 20.8-46.4 46.4 0 25.6 20.8 46.4 46.4 46.4S451 549 451 523.4c0-25.6-20.9-46.4-46.4-46.4z" fill="#8E7A8F" /><path d="M580 827.3c-105.1 0-190.6-85.5-190.6-190.6h30c0 88.6 72.1 160.6 160.6 160.6 88.6 0 160.6-72.1 160.6-160.6V505.1h30v131.6c0 105.1-85.5 190.6-190.6 190.6z" fill="#8E7A8F" /><path d="M754 523c-0.1 0-0.1 0 0 0h-0.2c-22.3-0.1-40.9-18.6-44.7-42.8-11.1-6.8-21.2-15.7-30.2-26.6-10.7-12.9-19.1-28-25-44.7-6-17.1-9-35.3-9-54v-0.8c0-18.7 3-36.9 9-54 5.8-16.7 14.3-31.7 25-44.7 9-10.9 19.2-19.8 30.2-26.6 3.8-24.2 22.4-42.7 44.7-42.8h0.4c22.3 0.1 40.9 18.6 44.7 42.8 11.1 6.8 21.2 15.7 30.2 26.6 10.7 12.9 19.1 28 25 44.7 6 17.1 9 35.3 9 54v0.8c0 18.7-3 36.9-9 54-5.8 16.7-14.3 31.7-25 44.7-9 10.9-19.2 19.8-30.2 26.6-3.8 24.2-22.4 42.7-44.7 42.8h-0.2z m-0.1-307c-8.5 0-15.6 10.1-15.6 22 0 5.6-3.2 10.8-8.2 13.4-10.3 5.3-19.8 13.1-28.2 23.2-8.4 10.2-15.1 22.1-19.8 35.4-4.9 13.9-7.4 28.8-7.4 44.1v0.8c0 15.3 2.5 30.2 7.4 44.1 4.7 13.3 11.3 25.2 19.8 35.4 8.4 10.1 17.9 17.9 28.2 23.2 5 2.6 8.2 7.7 8.2 13.4 0 11.9 7.1 21.9 15.6 22 8.5 0 15.6-10.1 15.6-22 0-5.6 3.2-10.8 8.2-13.4 10.3-5.3 19.8-13.1 28.2-23.2 8.4-10.2 15.1-22.1 19.8-35.4 4.9-13.9 7.4-28.8 7.4-44.1v-0.8c0-15.3-2.5-30.2-7.4-44.1-4.7-13.3-11.3-25.2-19.8-35.4-8.4-10.1-17.9-17.9-28.2-23.2-5-2.6-8.2-7.7-8.2-13.4 0-11.9-7.1-22-15.6-22z" fill="#8E7A8F" /></svg>