<?xml version="1.0" encoding="utf-8"?>
<!-- Svg Vector Icons : http://www.onlinewebfonts.com/icon -->
<!DOCTYPE svg PUBLIC "-//W3C//DTD SVG 1.1//EN" "http://www.w3.org/Graphics/SVG/1.1/DTD/svg11.dtd">
<svg version="1.1" xmlns="http://www.w3.org/2000/svg" xmlns:xlink="http://www.w3.org/1999/xlink" x="0px" y="0px" viewBox="0 0 1000 1000" enable-background="new 0 0 1000 1000" xml:space="preserve">
<metadata> Svg Vector Icons : http://www.onlinewebfonts.com/icon </metadata>
<g><path d="M500,990C229.4,990,10,770.6,10,500C10,229.4,229.4,10,500,10c270.6,0,490,219.4,490,490C990,770.6,770.6,990,500,990z M500,40.6C246.3,40.6,40.6,246.3,40.6,500c0,253.7,205.7,459.4,459.4,459.4c253.7,0,459.4-205.7,459.4-459.4C959.4,246.3,753.7,40.6,500,40.6z M652,568.6c-68.3,0-123.6-54.5-123.6-121.8c0-67.3,77.2-179.8,123.6-226.2c48.3,47.6,123.6,159,123.6,226.2C775.6,514,720.3,568.6,652,568.6z M651.4,269.6C618.4,305,564,388.8,564,440.2c0,51.4,39.4,93.1,88.1,93.1c48.6,0,88.1-41.7,88.1-93.1C740.1,388.8,685.8,305.9,651.4,269.6z M453.9,246.7C381,320.3,259.7,470.7,259.7,577.6c0,106.8,87,193.4,194.2,193.4c100.2,0,182.6-75.5,193.1-172.5c4.1,0.2,8.2,0.4,12.3,0.4c9.2,0,16.8-1.1,23.3-3C673,713.6,574.3,806.2,453.9,806.2c-126.8,0-229.5-102.6-229.5-229.2c0-126.6,143.4-296,229.5-383.3c29.8,29.7,65.1,68,98.9,110.5c-7.2,9.5-14,20.1-20.3,31.1C505.5,301,477.6,270.3,453.9,246.7z"/></g>
</svg>